<svg viewBox="0 0 18 19" fill="#006AFF"
     xmlns="http://www.w3.org/2000/svg">
    <path d="M5.0058 18.9988C4.87419 18.9996 4.74373 18.9744 4.62189 18.9246C4.50005 18.8749 4.38924 18.8016 4.2958 18.7089C4.20207 18.616 4.12768 18.5054 4.07691 18.3836C4.02614 18.2617 4 18.131 4 17.9991C4 17.8671 4.02614 17.7364 4.07691 17.6146C4.12768 17.4927 4.20207 17.3822 4.2958 17.2892L11.5958 10.0009L4.2958 2.71256C4.10749 2.5243 4.00171 2.26896 4.00171 2.00272C4.00171 1.73648 4.10749 1.48114 4.2958 1.29288C4.4841 1.10462 4.7395 0.998856 5.0058 0.998856C5.2721 0.998856 5.5275 1.10462 5.7158 1.29288L13.7158 9.29105C13.8095 9.384 13.8839 9.49457 13.9347 9.6164C13.9855 9.73824 14.0116 9.86891 14.0116 10.0009C14.0116 10.1329 13.9855 10.2635 13.9347 10.3854C13.8839 10.5072 13.8095 10.6178 13.7158 10.7107L5.7158 18.7089C5.62236 18.8016 5.51154 18.8749 5.38971 18.9246C5.26787 18.9744 5.13741 18.9996 5.0058 18.9988Z"
          fill="#006AFF"/>
</svg>